<?xml version="1.0" encoding="utf-8"?>
<!-- Generator: Adobe Illustrator 18.1.1, SVG Export Plug-In . SVG Version: 6.00 Build 0)  -->
<svg version="1.1" id="Layer_1" xmlns="http://www.w3.org/2000/svg" xmlns:xlink="http://www.w3.org/1999/xlink" x="0px" y="0px"
	 viewBox="550 250 100 100" enable-background="new 550 250 100 100" xml:space="preserve">
<g>
	<rect x="584" y="281.7" fill="none" stroke="#11100E" stroke-miterlimit="10" width="32.1" height="46.3"/>
	<line fill="none" stroke="#11100E" stroke-miterlimit="10" x1="572.7" y1="281.7" x2="627.3" y2="281.7"/>
	<line fill="none" stroke="#11100E" stroke-miterlimit="10" x1="584" y1="281.7" x2="600.3" y2="265.3"/>
	<line fill="none" stroke="#11100E" stroke-miterlimit="10" x1="616.1" y1="281.7" x2="599.7" y2="265.3"/>
	<line fill="none" stroke="#11100E" stroke-miterlimit="10" x1="584" y1="319.1" x2="616" y2="319.1"/>
	<line fill="none" stroke="#11100E" stroke-miterlimit="10" x1="584" y1="306.9" x2="616" y2="306.9"/>
	<line fill="none" stroke="#11100E" stroke-miterlimit="10" x1="584" y1="301.3" x2="616" y2="301.3"/>
	<line fill="none" stroke="#11100E" stroke-miterlimit="10" x1="584" y1="292.8" x2="616" y2="292.8"/>
	<line fill="none" stroke="#11100E" stroke-miterlimit="10" x1="584" y1="285.4" x2="616" y2="285.4"/>
	<line fill="none" stroke="#11100E" stroke-miterlimit="10" x1="584" y1="327.9" x2="584" y2="334.7"/>
	<line fill="none" stroke="#11100E" stroke-miterlimit="10" x1="585.9" y1="327.9" x2="585.9" y2="334.7"/>
	<line fill="none" stroke="#11100E" stroke-miterlimit="10" x1="587.8" y1="327.9" x2="587.8" y2="334.7"/>
	<line fill="none" stroke="#11100E" stroke-miterlimit="10" x1="589.6" y1="327.9" x2="589.6" y2="334.7"/>
	<line fill="none" stroke="#11100E" stroke-miterlimit="10" x1="591.5" y1="327.9" x2="591.5" y2="334.7"/>
	<line fill="none" stroke="#11100E" stroke-miterlimit="10" x1="593.4" y1="327.9" x2="593.4" y2="334.7"/>
	<line fill="none" stroke="#11100E" stroke-miterlimit="10" x1="595.3" y1="327.9" x2="595.3" y2="334.7"/>
	<line fill="none" stroke="#11100E" stroke-miterlimit="10" x1="597.1" y1="327.9" x2="597.1" y2="334.7"/>
	<line fill="none" stroke="#11100E" stroke-miterlimit="10" x1="599" y1="327.9" x2="599" y2="334.7"/>
	<line fill="none" stroke="#11100E" stroke-miterlimit="10" x1="601" y1="327.9" x2="601" y2="334.7"/>
	<line fill="none" stroke="#11100E" stroke-miterlimit="10" x1="602.9" y1="327.9" x2="602.9" y2="334.7"/>
	<line fill="none" stroke="#11100E" stroke-miterlimit="10" x1="604.7" y1="327.9" x2="604.7" y2="334.7"/>
	<line fill="none" stroke="#11100E" stroke-miterlimit="10" x1="606.6" y1="327.9" x2="606.6" y2="334.7"/>
	<line fill="none" stroke="#11100E" stroke-miterlimit="10" x1="608.5" y1="327.9" x2="608.5" y2="334.7"/>
	<line fill="none" stroke="#11100E" stroke-miterlimit="10" x1="610.4" y1="327.9" x2="610.4" y2="334.7"/>
	<line fill="none" stroke="#11100E" stroke-miterlimit="10" x1="612.2" y1="327.9" x2="612.2" y2="334.7"/>
	<line fill="none" stroke="#11100E" stroke-miterlimit="10" x1="614.1" y1="327.9" x2="614.1" y2="334.7"/>
	<line fill="none" stroke="#11100E" stroke-miterlimit="10" x1="616" y1="327.9" x2="616" y2="334.7"/>
</g>
</svg>
