<?xml version="1.0" encoding="utf-8"?>
<!-- Generator: Adobe Illustrator 18.1.1, SVG Export Plug-In . SVG Version: 6.00 Build 0)  -->
<svg version="1.1" id="Layer_1" xmlns="http://www.w3.org/2000/svg" xmlns:xlink="http://www.w3.org/1999/xlink" x="0px" y="0px"
	 viewBox="550 250 100 100" enable-background="new 550 250 100 100" xml:space="preserve">
<g>
	<rect x="561.7" y="267.9" fill="none" stroke="#000000" stroke-miterlimit="10" width="44.9" height="64.1"/>
	
		<rect x="598.7" y="319" transform="matrix(-0.8656 0.5008 -0.5008 -0.8656 1279.0297 295.9656)" fill="#11100E" stroke="#000000" stroke-miterlimit="10" width="2.2" height="1.3"/>
	<path fill="none" stroke="#000000" stroke-miterlimit="10" d="M637,299.8l-34.5,19.8c-0.6,0.4-1.5,0.1-1.8-0.5l-0.1-0.2
		c-0.4-0.6-0.1-1.5,0.5-1.8l34.4-19.9c0.6-0.4,1.5-0.1,1.8,0.5l0.1,0.2C637.8,298.6,637.6,299.4,637,299.8z"/>
	<path fill="#11100E" stroke="#000000" stroke-miterlimit="10" d="M637.6,300.4l-5.9,3.4c-0.6,0.4-1.5,0.1-1.8-0.5l-1-1.7
		c-0.4-0.6-0.1-1.5,0.5-1.8l5.9-3.4c0.6-0.4,1.5-0.1,1.8,0.5l1,1.7C638.4,299.2,638.2,300,637.6,300.4z"/>
	<rect x="569.1" y="286.4" fill="none" stroke="#000000" stroke-miterlimit="10" width="30" height="13"/>
	<line fill="none" stroke="#000000" stroke-miterlimit="10" x1="569.1" y1="286.4" x2="599.2" y2="299.4"/>
	<line fill="none" stroke="#000000" stroke-miterlimit="10" x1="599.2" y1="286.4" x2="569.1" y2="299.4"/>
	<line fill="none" stroke="#000000" stroke-miterlimit="10" x1="569.1" y1="304.7" x2="599.2" y2="304.7"/>
	<line fill="none" stroke="#000000" stroke-miterlimit="10" x1="569.1" y1="281.2" x2="599.2" y2="281.2"/>
	<line fill="none" stroke="#000000" stroke-miterlimit="10" x1="569.1" y1="276.9" x2="599.2" y2="276.9"/>
	<line fill="none" stroke="#000000" stroke-miterlimit="10" x1="569.1" y1="309.8" x2="599.2" y2="309.8"/>
	<line fill="none" stroke="#000000" stroke-miterlimit="10" x1="569.1" y1="314.9" x2="599.2" y2="314.9"/>
	<line fill="none" stroke="#000000" stroke-miterlimit="10" x1="569.1" y1="319.9" x2="599.2" y2="319.9"/>
</g>
</svg>
